<?xml version="1.0" encoding="utf-8"?>
<!-- Generator: Adobe Illustrator 23.0.3, SVG Export Plug-In . SVG Version: 6.00 Build 0)  -->
<svg version="1.1" id="Calque_1" xmlns="http://www.w3.org/2000/svg" xmlns:xlink="http://www.w3.org/1999/xlink" x="0px" y="0px"
	 viewBox="0 0 40 40" style="enable-background:new 0 0 40 40;" xml:space="preserve">
<path d="M0.3,33.8c0-9.2,0-18.5,0-27.7c0-0.1,0.1-0.2,0.1-0.3C0.8,3.7,2,2,4,1c0.7-0.3,1.4-0.5,2.1-0.7c9.2,0,18.5,0,27.7,0
	c0.1,0,0.1,0.1,0.2,0.1c3.3,0.5,5.6,3.2,5.6,6.5c0,8.7,0,17.5,0,26.2c0,1-0.2,1.9-0.6,2.7c-1.2,2.5-3.3,3.8-6.1,3.8
	c-8.7,0-17.4,0-26.1,0c-0.2,0-0.3,0-0.5,0c-2.8-0.3-4.7-1.7-5.7-4.2C0.6,34.9,0.5,34.4,0.3,33.8z M34.7,2.8c-0.1,0-0.2,0-0.3,0
	c-2.1,0-4.2,0-6.3,0c-0.7,0-1.4,0-2.1,0.2c-1.4,0.2-2.7,0.6-3.8,1.6c-1.4,1.3-2,2.9-2.1,4.7C20,10.8,20,12.4,20,13.9
	c0,0.1,0,0.3,0,0.4c-1.2,0-2.4,0-3.5,0c0,1.9,0,3.7,0,5.6c1.2,0,2.3,0,3.5,0c0,5.8,0,11.5,0,17.2c2.5,0,4.9,0,7.4,0
	c0-5.7,0-11.5,0-17.2c2.1,0,4.3,0,6.4,0c0.3-1.9,0.7-3.7,1-5.6c-2.5,0-4.9,0-7.4,0c0-1.1,0-2.1,0-3.2c0-0.3,0-0.7,0.1-1
	c0.1-0.8,0.5-1.2,1.3-1.3c1.6-0.1,3.3,0,4.9-0.1c0.3,0,0.6,0,1,0C34.7,6.8,34.7,4.8,34.7,2.8z"/>
</svg>
