<?xml version="1.0" encoding="utf-8"?>
<!-- Generator: Adobe Illustrator 23.0.3, SVG Export Plug-In . SVG Version: 6.00 Build 0)  -->
<svg version="1.1" id="Calque_1" xmlns="http://www.w3.org/2000/svg" xmlns:xlink="http://www.w3.org/1999/xlink" x="0px" y="0px"
	 viewBox="0 0 40 40" style="enable-background:new 0 0 40 40;" xml:space="preserve">
<style type="text/css">
	.st0{fill:none;}
</style>
<path d="M19.4,0.5c3.3,0,6.1,0.1,8.8,0.1c1.5,0,2.9,0.1,4.5,0.5C35.1,1.7,37,3,38.2,5.2c0.6,1.1,0.9,2.4,1,3.7
	c0.3,2.3,0.3,4.6,0.3,6.9c0,4,0,7.9,0,11.9c0,1.5-0.1,3.2-0.4,4.7c-0.4,2-1.4,3.8-3.2,5.1c-1.1,0.9-2.6,1.3-4,1.5
	c-1.8,0.3-3.6,0.4-5.4,0.4c-4.5,0-8.8,0-13.3,0c-1.5,0-3.2-0.1-4.7-0.3c-0.9-0.1-1.8-0.4-2.6-0.6c-2.6-1-4.1-2.9-4.7-5.5
	c-0.4-1.4-0.5-2.4-0.5-3.4c-0.3-4.2-0.1-8.4-0.1-12.8c0-2.2,0.1-4.3,0.1-6.4c0-1.4,0.3-2.7,0.6-4c1-2.7,2.9-4.5,5.7-5.2
	c1.1-0.4,2.3-0.5,3.6-0.5C13.6,0.5,16.8,0.5,19.4,0.5z M20,32.1c6.8,0,12.1-5.5,12.1-12.1c0-6.8-5.4-12.3-12.1-12.3S7.8,13,7.8,19.8
	C7.9,26.7,13.2,32.1,20,32.1z M35.5,7.3c0-1.5-1.3-2.8-2.8-2.8s-2.8,1.3-2.8,2.8s1.3,2.8,2.8,2.8S35.5,8.8,35.5,7.3z"/>
<path class="st0" d="M35.5,7.3c0,1.5-1.3,2.8-2.8,2.8s-2.8-1.3-2.8-2.8s1.3-2.8,2.8-2.8S35.5,5.8,35.5,7.3z"/>
<path d="M20,12c4.3,0,7.9,3.6,7.9,7.9s-3.6,7.9-7.9,7.9s-7.9-3.6-7.9-7.9S15.7,12,20,12z"/>
</svg>
