<?xml version="1.0" encoding="utf-8"?>
<!-- Generator: Adobe Illustrator 23.0.3, SVG Export Plug-In . SVG Version: 6.00 Build 0)  -->
<svg version="1.1" id="Calque_1" xmlns="http://www.w3.org/2000/svg" xmlns:xlink="http://www.w3.org/1999/xlink" x="0px" y="0px"
	 viewBox="0 0 100 70" style="enable-background:new 0 0 100 70;" xml:space="preserve">
<style type="text/css">
	.st0{fill:#FFFFFF;stroke:#000000;stroke-miterlimit:10;}
	.st1{fill:#C1E7E3;}
	.st2{fill:#E7EDA7;}
	.st3{fill:none;stroke:#000000;stroke-miterlimit:10;}
</style>
<path class="st0" d="M-0.6,169.7"/>
<g>
	<g>
		<g>
			<path d="M27.2,39.1v0.6c-0.7,0.5-1.4,0.9-1.9,1.1c-0.6,0.3-1,0.6-1.5,0.8c-0.6,0.2-1,0.4-1.3,0.5c-0.3,0.1-0.6,0.2-0.9,0.2
				c-0.6,0-1-0.1-1.4-0.5c-0.4-0.3-0.6-0.7-0.6-1.1c0-0.5,0.2-1.1,0.5-1.6s0.7-1.1,1.4-1.6c0.6-0.6,1.3-1.2,2.1-1.9
				c0.6-0.5,1-0.8,1-0.9c0-0.1,0-0.1-0.1-0.1c0,0-0.1-0.1-0.2-0.1c-0.2,0-0.6,0.2-1.4,0.7c-0.7,0.5-1.7,1.1-2.9,2
				c-1.2,0.9-2.5,2-3.8,3.2c-0.1,0.1-0.3,0.3-0.7,0.7c-0.4,0.3-0.7,0.6-0.9,0.7c-0.2,0.1-0.3,0.2-0.4,0.2c-0.2,0-0.4-0.2-0.6-0.5
				s-0.2-0.6-0.2-1c0-0.2,0.1-0.5,0.3-0.7c0.2-0.2,0.6-0.7,1.3-1.3c0.6-0.6,1.2-1.1,1.7-1.6c0.4-0.5,1-0.9,1.4-1.6
				c0.4-0.5,0.6-0.7,0.8-1c0.2-0.3,0.2-0.5,0.2-0.7c0-0.2-0.1-0.2-0.2-0.2c-0.3,0-0.9,0.3-1.7,0.8c-0.8,0.5-1.8,1.4-3,2.5
				s-2.4,2.4-3.7,3.7c-0.4,0.5-0.7,0.8-0.9,1s-0.4,0.2-0.6,0.2c-0.2,0-0.6-0.2-0.8-0.6c-0.2-0.4-0.4-0.7-0.4-1c0-0.1,0-0.2,0.2-0.3
				c1-0.9,1.8-1.7,2.5-2.4s1.3-1.3,1.7-1.9c0.5-0.6,0.9-1.1,1.1-1.5c0.2-0.4,0.4-0.7,0.3-0.9c0-0.2-0.2-0.3-0.5-0.3
				c-0.2,0-0.6,0.1-1.3,0.3c-0.6,0.2-1.4,0.5-2.2,0.9c-1,0.4-1.7,0.7-2.1,0.9c-0.6,0.2-1,0.3-1.2,0.3S6,35.1,6,34.9
				c0-0.1,0.1-0.3,0.2-0.8c0.1-0.4,0.2-0.7,0.3-0.9c0.2-0.2,0.6-0.5,1.3-0.9c0.6-0.3,1-0.5,1.1-0.5S9,31.9,9,32c0,0,0,0.1-0.1,0.1
				c-0.3,0.2-0.6,0.3-0.7,0.5s-0.2,0.2-0.3,0.3c1.4-0.6,2.6-1,3.8-1.4c1.1-0.3,1.9-0.5,2.3-0.5c0.2,0,0.4,0.1,0.6,0.3
				c0.2,0.2,0.4,0.5,0.5,0.7c0.2,0.3,0.2,0.5,0.2,0.5c0,0.3-0.1,0.6-0.3,1c-0.2,0.3-0.5,0.8-0.8,1.3c-0.3,0.5-0.7,1.1-1.3,1.8
				c0.4-0.3,0.8-0.7,1.1-1c0.4-0.3,0.7-0.6,1.1-0.9s0.7-0.6,1.1-0.9c0.5-0.4,1-0.8,1.7-1.1c0.6-0.3,1.2-0.7,1.7-0.9
				c0.6-0.2,1-0.3,1.1-0.3c0.2,0,0.6,0.1,0.7,0.3c0.2,0.2,0.3,0.5,0.3,0.7c0,0.2-0.2,0.5-0.4,0.9c-0.3,0.5-0.7,1-1.3,1.7
				s-1.3,1.6-2.2,2.6c0.9-0.6,1.7-1.3,2.7-2c1-0.7,1.7-1.2,2.1-1.5c0.5-0.3,0.9-0.6,1.1-0.7c0.4-0.2,0.9-0.5,1.3-0.7
				c0.4-0.2,0.7-0.5,1-0.6c0.2-0.2,0.5-0.3,0.6-0.3c0.2-0.1,0.4-0.1,0.6-0.1s0.5,0.2,0.8,0.5c0.3,0.3,0.5,0.5,0.5,0.6
				c0,0.1-0.1,0.2-0.2,0.4s-0.6,0.5-1.1,0.9c-1,0.8-2,1.6-2.7,2.4c-0.7,0.8-1.4,1.6-1.7,2.2c-0.4,0.7-0.6,1.1-0.6,1.6
				c0,0.2,0.1,0.4,0.2,0.5c0.2,0.1,0.3,0.2,0.6,0.2c0.2,0,0.5,0,0.7-0.1c0.2-0.1,0.5-0.2,0.7-0.3c0.2-0.1,0.5-0.2,0.7-0.3
				c0.3-0.1,0.6-0.3,1-0.5s0.6-0.3,0.7-0.3S27.1,39.2,27.2,39.1z"/>
			<path d="M32.4,39.4l-2.1,1.3c-1,0.6-1.7,0.9-2,0.9s-0.6-0.2-1-0.7c-0.3-0.5-0.5-0.9-0.5-1.3c0-0.3,0.1-0.6,0.2-0.8
				c0.2-0.2,0.4-0.5,0.7-0.8c0.5-0.5,1-0.9,1.4-1.1c0.4-0.3,0.8-0.6,1.1-0.7s0.6-0.2,0.7-0.2s0.4,0.1,0.6,0.2
				c0.2,0.2,0.3,0.3,0.3,0.5c0,0.1-0.1,0.3-0.3,0.5c-0.2,0.2-0.6,0.5-1,0.9s-1.1,0.7-1.9,1.3l-0.2,0.5c-0.1,0.1-0.1,0.2-0.1,0.2
				c0,0.1,0.1,0.2,0.3,0.2s0.7-0.2,1.5-0.6c0.8-0.4,1.7-0.9,2.6-1.6c0.4-0.2,0.6-0.5,0.9-0.7c0.2-0.2,0.5-0.3,0.6-0.6
				c0.2-0.2,0.4-0.3,0.5-0.4c0.2-0.1,0.2-0.1,0.3-0.1c0.2,0,0.3,0.1,0.5,0.2c0.1,0.1,0.2,0.3,0.2,0.6c0,0.1-0.1,0.3-0.2,0.6
				c-0.2,0.2-0.6,0.6-1,1.1c-0.6,0.5-1,1.1-1.5,1.6c-0.5,0.6-1,1.2-1.5,1.9c0,0,0.2-0.2,0.7-0.5c0.5-0.3,1-0.6,1.4-1
				c0.5-0.3,1-0.6,1.3-0.8c0.3-0.2,0.7-0.5,1.2-0.7v0.6c-1,0.8-2,1.5-2.8,2.2c-0.9,0.7-1.5,1.3-1.9,1.7c-0.5,0.4-0.7,0.7-0.8,0.7
				c-0.2,0.2-0.4,0.3-0.6,0.5c-0.2,0.2-0.3,0.3-0.4,0.4c-0.1,0.1-0.2,0.1-0.2,0.1c-0.2,0-0.3-0.1-0.4-0.3c-0.2-0.2-0.2-0.4-0.2-0.6
				c0-0.2,0-0.3,0.2-0.4C29.2,43.2,30.5,41.6,32.4,39.4z"/>
		</g>
		<g>
			<g>
				<path d="M58.6,51.8v0.2c0,0.3,0.1,0.6,0.3,0.7c0.2,0.2,0.6,0.3,0.9,0.3c0.4,0,0.8-0.1,1.2-0.2s0.8-0.3,1.2-0.5
					c0.4-0.2,0.9-0.5,1.5-0.8v0.5c-0.9,0.7-1.7,1.3-2.5,1.7c-0.8,0.4-1.5,0.6-2.3,0.6c-0.7,0-1.2-0.2-1.7-0.6
					c-0.4-0.3-0.6-0.9-0.6-1.5c0-0.6,0.2-1.1,0.6-1.6c0.4-0.5,1-0.9,1.8-1.4c0.6-0.3,1.2-0.6,1.7-0.8c0.6-0.2,1.1-0.3,1.5-0.3
					s0.6,0.1,0.9,0.2c0.2,0.1,0.3,0.3,0.3,0.5c0,0.3-0.2,0.7-0.6,1c-0.4,0.3-1,0.7-1.7,1C60.6,51.3,59.7,51.5,58.6,51.8z M58.7,51.3
					c0.7-0.2,1.3-0.4,1.7-0.7c0.5-0.3,0.9-0.6,1.1-0.8c0.2-0.2,0.4-0.5,0.4-0.6S61.9,49,61.7,49c-0.2,0-0.4,0.1-0.7,0.2
					c-0.3,0.1-0.6,0.3-1,0.5c-0.3,0.2-0.6,0.5-0.9,0.7C58.9,50.7,58.8,51,58.7,51.3z"/>
				<path d="M69,52.6c1-0.7,2-1.2,2.7-1.7s1.4-0.9,1.8-1.1c0.5-0.3,0.8-0.5,1.1-0.7c0.3-0.2,0.6-0.3,0.6-0.3c0.2,0,0.4,0.1,0.5,0.4
					c0.2,0.3,0.2,0.5,0.2,0.6c0,0.1-0.2,0.3-0.7,0.7c-0.5,0.3-0.9,0.7-1.1,0.9s-0.4,0.5-0.4,0.7c0,0.1,0.1,0.2,0.2,0.3
					c0.2,0.1,0.3,0.1,0.5,0.1c0.2,0,0.5-0.1,0.8-0.2c0.3-0.1,0.8-0.5,1.5-0.9V52c-0.6,0.5-1.3,0.8-1.8,1.1c-0.6,0.3-1,0.6-1.4,0.7
					c-0.4,0.2-0.8,0.2-1,0.2c-0.2,0-0.4-0.1-0.6-0.2c-0.2-0.1-0.2-0.3-0.2-0.5s0-0.3,0.2-0.6c0.1-0.2,0.2-0.4,0.4-0.7
					c0.2-0.2,0.5-0.6,0.7-0.9c0.3-0.3,0.6-0.7,0.9-1c-0.8,0.5-1.5,0.9-2.1,1.3c-0.6,0.4-1.1,0.8-1.5,1.1c-0.4,0.3-0.7,0.6-1,0.7
					c-0.4,0.3-0.8,0.5-1.2,0.5c-0.4,0-0.6-0.2-0.6-0.6c0-0.2,0.2-0.5,0.5-0.9c0.3-0.4,0.7-0.9,1.3-1.6c0-0.1,0.1-0.1,0.1-0.2
					s-0.1-0.2-0.2-0.2s-0.4,0.1-0.7,0.3s-1,0.7-1.8,1.4c-0.2,0.2-0.6,0.5-0.9,0.8s-0.6,0.5-0.7,0.6c-0.2,0.1-0.2,0.2-0.4,0.2
					c-0.2,0-0.6-0.2-0.8-0.5s-0.4-0.7-0.4-1.2c0-0.3,0.1-0.6,0.2-0.9c0.2-0.2,0.4-0.6,0.7-0.9c0.6-0.5,1-0.9,1.3-1.1
					c0.3-0.2,0.6-0.3,1-0.3c0.2,0,0.4,0,0.6,0.1c0.2,0.1,0.2,0.1,0.2,0.2s-0.2,0.3-0.4,0.6c-0.2,0.3-0.6,0.5-1.1,0.8
					c-0.2,0.2-0.5,0.3-0.6,0.6c-0.2,0.2-0.3,0.4-0.3,0.5s0.1,0.2,0.2,0.2c0.2,0,0.5-0.2,1-0.6c0.6-0.4,1.1-0.8,1.7-1.3
					c0.6-0.5,1.2-0.8,1.7-1.1s1-0.5,1.4-0.5c0.2,0,0.4,0.1,0.6,0.2c0.2,0.1,0.2,0.3,0.2,0.5c0,0.1-0.2,0.3-0.4,0.6
					c-0.2,0.3-0.6,0.7-1,1.1C70.1,51.4,69.7,51.9,69,52.6z"/>
				<path d="M84.2,51.4V52c-0.5,0.3-1,0.5-1.2,0.6c-0.3,0.1-0.8,0.2-1.4,0.1c-1,0.8-1.9,1.3-2.6,1.3c-0.4,0-0.8-0.1-1.2-0.3
					c-0.4-0.2-0.6-0.5-0.9-0.8c-0.2-0.3-0.3-0.7-0.3-1.1c0-0.3,0.2-0.7,0.5-1.1c0.3-0.4,0.7-0.8,1.3-1.1c0.6-0.3,1.1-0.7,1.7-0.9
					c0.6-0.2,1.1-0.3,1.7-0.3c0.4,0,0.6,0.1,0.9,0.1c0.2,0.1,0.3,0.2,0.3,0.3c0,0.1-0.1,0.2-0.2,0.3c0.3,0.1,0.5,0.1,0.6,0.2
					s0.2,0.3,0.2,0.6c0,0.2-0.1,0.6-0.2,1c-0.2,0.4-0.4,0.7-0.7,1.1l0.2,0.1h0.2c0.2,0,0.2,0,0.4-0.1c0.2-0.1,0.2-0.1,0.3-0.1
					C83.6,51.7,83.9,51.6,84.2,51.4z M81.8,49.3c-0.6,0.3-1.2,0.5-1.7,0.7s-0.9,0.5-1.1,0.7c-0.3,0.2-0.6,0.5-0.6,0.7
					c-0.2,0.6-0.3,0.9-0.3,1c0,0.3,0.4,0.5,1,0.5c0.3,0,0.9-0.2,1.7-0.6c-0.2-0.2-0.2-0.5-0.2-0.7c0-0.3,0.1-0.7,0.3-1
					S81.4,49.8,81.8,49.3z"/>
			</g>
		</g>
		<path class="st1" d="M36.2,52.7c0-2.4-0.1-4.8-0.1-7.1c0.1-2.5,0.9-4.8,3.6-6.6c0.6-0.4,0.6-0.7,0-1.1c-2.7-1.8-3.8-4-3.7-6.5
			c0.1-1.7-0.1-3.4,0-5.2c0-1.7,1.4-2.6,3.6-2.6c2.1,0,3.4,1.1,3.3,2.8c-0.1,1.8-0.2,3.6-0.1,5.3c0.1,0.8,0.5,1.8,1.2,2.4
			c1.9,1.8,2.1,2,4.4,0c0.9-0.7,1.1-2,1.3-2.9c0.2-1.8-0.1-3.6-0.1-5.3c0-1.3,1.3-2.2,3-2.3c1.7-0.1,3.6,0.6,3.6,1.9
			c0,2.6,1.1,5.2-0.5,7.9c-1,1.7-2.6,3-4.5,4.3c-0.6,0.3-1,0.7-1.6,1c-1.7,1-3.6,2-5.4,3c-1.2,0.7-1.7,1.6-1.7,2.7
			c0.2,4.9,0.2,9.7,0.3,14.6c0,1.1-0.5,1.9-1.9,2.4c-0.5,0.2-0.9,0.5-1.4,0.6c-0.7,0.2-1.7,0.6-2.1,0.5c-0.6-0.3-1.1-1-1.3-1.6
			c-0.2-0.9-0.1-1.8-0.1-2.8C36.3,56.2,36.3,54.5,36.2,52.7C36.3,52.7,36.3,52.7,36.2,52.7z"/>
		<path class="st2" d="M56.7,52.6c0-2.4,0-4.8-0.1-7.1c-0.1-2.5-1-4.8-3.7-6.6c-0.6-0.4-0.6-0.7,0-1.1c2.7-1.8,3.7-4,3.6-6.5
			c-0.1-1.7,0-3.4-0.1-5.2c-0.1-1.7-1.4-2.6-3.6-2.6c-2.1,0.1-3.4,1.1-3.3,2.8c0.1,1.8,0.2,3.6,0.2,5.3c-0.1,0.8-0.4,1.8-1.1,2.4
			c-1.8,1.8-2.1,2-4.4,0.1c-0.9-0.7-1.2-2-1.3-2.9c-0.2-1.8,0-3.6,0-5.3c0-1.3-1.3-2.2-3.1-2.2c-1.7-0.1-3.6,0.7-3.6,1.9
			c0.1,2.6-1.1,5.2,0.6,7.9c1,1.7,2.6,3,4.5,4.2c0.6,0.3,1,0.7,1.6,1c1.7,1,3.7,2,5.4,3c1.2,0.7,1.7,1.6,1.7,2.7
			c-0.1,4.9-0.1,9.7-0.2,14.6c0,1.1,0.5,1.9,1.9,2.4c0.5,0.2,0.9,0.5,1.4,0.6c0.7,0.2,1.7,0.6,2.1,0.4c0.6-0.3,1.1-1,1.3-1.6
			c0.2-0.9,0.1-1.8,0.1-2.8C56.7,56.1,56.7,54.4,56.7,52.6L56.7,52.6z"/>
	</g>
	<path class="st3" d="M50.4,4C49.5,15.5,94,74.4,45.1,69S50.4,4,50.4,4z"/>
</g>
<path class="st3" d="M-131.1-31.7"/>
</svg>
