<?xml version="1.0" encoding="utf-8"?>
<!-- Generator: Adobe Illustrator 23.0.3, SVG Export Plug-In . SVG Version: 6.00 Build 0)  -->
<svg version="1.1" id="Calque_1" xmlns="http://www.w3.org/2000/svg" xmlns:xlink="http://www.w3.org/1999/xlink" x="0px" y="0px"
	 viewBox="0 0 30 30" style="enable-background:new 0 0 30 30;" xml:space="preserve">
<path d="M19.7,1c0.6,0,1,0,1.5,0c1.3,0.2,2.5,0.9,3.6,2.1c0,0,0.4,0.2,0.6,0c1.1-0.5,2.3-0.9,3.4-1.4c-0.4,1.4-1.1,2.6-2.3,3.8
	c1-0.2,1.9-0.7,3-0.9c0,0,0,0.2,0.2,0.2c-0.8,0.9-1.5,1.9-2.3,2.6c-0.6,0.5-0.8,0.9-0.8,1.9c0,1.4-0.2,2.8-0.4,4
	c-1.5,8.3-6.9,14.2-14.1,15.4c-4,0.7-7.6,0-11.2-2.1c-0.2-0.2-0.6-0.5-0.8-0.5C3.5,26.4,6.3,25.4,9,23c-3.4-0.9-5.1-2.6-5.5-4.7
	c0.8,0,1.7,0,2.5-0.2c-2.3-1.4-2.7-1.7-3.4-2.6c-1-1.4-1.5-3.3-1.3-4.3c0.8,0.2,1.5,0.5,2.5,0.7C1.2,8.6,0.4,4.8,2.2,2.4
	c3.2,4.5,7.4,6.9,12.6,7.3c0-0.2,0-0.7,0-0.9c-0.2-2.6,0.6-4.7,2.3-6.4C17.6,1.5,18.5,1.2,19.7,1z"/>
</svg>
